<svg width="404" height="183" viewBox="0 0 404 183" fill="none" xmlns="http://www.w3.org/2000/svg">
<path d="M75.1556 73.2C78.3282 73.2 81.3847 73.6163 84.3252 74.449C87.2656 75.2624 90.0126 76.4243 92.5662 77.9348C95.1391 79.4259 97.4702 81.2268 99.5594 83.3376C101.668 85.4291 103.467 87.7625 104.957 90.3381C106.466 92.8943 107.626 95.6441 108.439 98.5876C109.271 101.531 109.687 104.591 109.687 107.767V181.983C109.687 182.274 109.58 182.516 109.367 182.71C109.174 182.903 108.942 183 108.671 183H74.14C73.8498 183 73.608 182.903 73.4146 182.71C73.2211 182.516 73.1244 182.274 73.1244 181.983V117.933C73.1244 116.81 72.9116 115.755 72.486 114.767C72.0604 113.78 71.4801 112.918 70.7449 112.182C70.0098 111.446 69.149 110.865 68.1624 110.439C67.1758 110.013 66.1215 109.8 64.9995 109.8H44.6871C43.5651 109.8 42.5108 110.013 41.5242 110.439C40.5376 110.865 39.6767 111.446 38.9416 112.182C38.2065 112.918 37.6262 113.78 37.2006 114.767C36.775 115.755 36.5622 116.81 36.5622 117.933V138.267C36.5622 139.39 36.775 140.445 37.2006 141.433C37.6262 142.42 38.2065 143.282 38.9416 144.018C39.6767 144.754 40.5376 145.335 41.5242 145.761C42.5108 146.187 43.5651 146.4 44.6871 146.4H63.9838C64.2547 146.4 64.4965 146.497 64.7093 146.69C64.9221 146.884 65.0285 147.126 65.0285 147.417V181.983C65.0285 182.274 64.9221 182.516 64.7093 182.71C64.4965 182.903 64.2547 183 63.9838 183H34.531C31.3584 183 28.3018 182.593 25.3614 181.78C22.4209 180.947 19.6643 179.785 17.0914 178.294C14.5378 176.784 12.2067 174.983 10.0981 172.891C8.00886 170.781 6.20977 168.447 4.70085 165.891C3.21128 163.315 2.05058 160.556 1.21874 157.612C0.406247 154.669 0 151.609 0 148.433V107.767C0 104.591 0.406247 101.531 1.21874 98.5876C2.05058 95.6441 3.21128 92.8943 4.70085 90.3381C6.20977 87.7625 8.00886 85.4291 10.0981 83.3376C12.2067 81.2268 14.5378 79.4259 17.0914 77.9348C19.6643 76.4243 22.4209 75.2624 25.3614 74.449C28.3018 73.6163 31.3584 73.2 34.531 73.2H75.1556Z" fill="white"/>
<path d="M159.235 181.983C159.235 182.274 159.139 182.516 158.945 182.71C158.752 182.903 158.51 183 158.22 183H123.689C123.399 183 123.157 182.903 122.963 182.71C122.77 182.516 122.673 182.274 122.673 181.983V74.2167C122.673 73.9262 122.77 73.6841 122.963 73.4905C123.157 73.2968 123.399 73.2 123.689 73.2H158.22C158.51 73.2 158.752 73.2968 158.945 73.4905C159.139 73.6841 159.235 73.9262 159.235 74.2167V181.983ZM159.235 53.8833C159.235 54.1738 159.139 54.4159 158.945 54.6095C158.752 54.8032 158.51 54.9 158.22 54.9H123.689C123.399 54.9 123.157 54.8032 122.963 54.6095C122.77 54.4159 122.673 54.1738 122.673 53.8833V19.3167C122.673 19.0262 122.77 18.7841 122.963 18.5905C123.157 18.3968 123.399 18.3 123.689 18.3H158.22C158.51 18.3 158.752 18.3968 158.945 18.5905C159.139 18.7841 159.235 19.0262 159.235 19.3167V53.8833Z" fill="white"/>
<path d="M244.572 127.49C244.321 127.877 244.321 128.265 244.572 128.652L281.047 181.402C281.26 181.751 281.27 182.109 281.076 182.477C280.902 182.826 280.612 183 280.206 183H242.019C241.651 183 241.38 182.864 241.206 182.593L224.434 159.007C224.221 158.716 223.941 158.571 223.592 158.571C223.264 158.571 222.993 158.716 222.78 159.007L209.142 178.672C209.103 178.769 209.064 178.866 209.026 178.962C208.987 179.059 208.968 179.156 208.968 179.253V181.954C208.968 182.245 208.871 182.497 208.677 182.71C208.484 182.903 208.233 183 207.923 183H173.45C173.16 183 172.908 182.903 172.696 182.71C172.502 182.497 172.405 182.245 172.405 181.954V0.958564C172.405 0.687452 172.502 0.464754 172.696 0.290471C172.908 0.0968236 173.16 0 173.45 0H207.923C208.233 0 208.484 0.0968236 208.677 0.290471C208.871 0.464754 208.968 0.687452 208.968 0.958564V113.983C208.968 114.235 209.035 114.448 209.171 114.622C209.325 114.777 209.5 114.883 209.693 114.941C209.887 115 210.09 115.009 210.302 114.97C210.515 114.912 210.689 114.777 210.825 114.564C212.276 112.453 213.543 110.613 214.626 109.045C215.709 107.476 216.667 106.092 217.499 104.891C218.331 103.69 219.066 102.625 219.704 101.696C220.362 100.747 220.971 99.8657 221.532 99.0524C222.113 98.2197 222.683 97.4063 223.244 96.6124C223.805 95.799 224.415 94.9083 225.072 93.94C225.749 92.9717 226.504 91.897 227.336 90.7157C228.168 89.5151 229.135 88.1111 230.238 86.5038C231.36 84.8771 232.646 83.0181 234.097 80.9267C235.548 78.8159 237.231 76.3759 239.146 73.6067C239.359 73.3356 239.639 73.2 239.987 73.2H280.206C280.419 73.2 280.602 73.2581 280.757 73.3743C280.912 73.4711 281.028 73.597 281.105 73.7519C281.183 73.9068 281.221 74.0811 281.221 74.2748C281.221 74.449 281.163 74.6137 281.047 74.7686L244.572 127.49Z" fill="white"/>
<path d="M404 148.433C404 151.609 403.584 154.669 402.752 157.612C401.94 160.556 400.779 163.315 399.27 165.891C397.781 168.447 395.981 170.781 393.873 172.891C391.784 174.983 389.452 176.784 386.88 178.294C384.326 179.785 381.579 180.947 378.639 181.78C375.698 182.593 372.642 183 369.469 183H328.844C325.672 183 322.615 182.593 319.675 181.78C316.734 180.947 313.978 179.785 311.405 178.294C308.851 176.784 306.52 174.983 304.412 172.891C302.322 170.781 300.523 168.447 299.014 165.891C297.525 163.315 296.364 160.556 295.532 157.612C294.72 154.669 294.313 151.609 294.313 148.433V107.767C294.313 104.591 294.72 101.531 295.532 98.5876C296.364 95.6441 297.525 92.8943 299.014 90.3381C300.523 87.7625 302.322 85.4291 304.412 83.3376C306.52 81.2268 308.851 79.4259 311.405 77.9348C313.978 76.4243 316.734 75.2624 319.675 74.449C322.615 73.6163 325.672 73.2 328.844 73.2H369.469C372.642 73.2 375.698 73.6163 378.639 74.449C381.579 75.2624 384.326 76.4243 386.88 77.9348C389.452 79.4259 391.784 81.2268 393.873 83.3376C395.981 85.4291 397.781 87.7625 399.27 90.3381C400.779 92.8943 401.94 95.6441 402.752 98.5876C403.584 101.531 404 104.591 404 107.767V148.433ZM367.438 117.933C367.438 116.81 367.225 115.755 366.799 114.767C366.374 113.78 365.793 112.918 365.058 112.182C364.323 111.446 363.462 110.865 362.476 110.439C361.489 110.013 360.435 109.8 359.313 109.8H339.001C337.879 109.8 336.824 110.013 335.838 110.439C334.851 110.865 333.99 111.446 333.255 112.182C332.52 112.918 331.94 113.78 331.514 114.767C331.088 115.755 330.876 116.81 330.876 117.933V138.267C330.876 139.39 331.088 140.445 331.514 141.433C331.94 142.42 332.52 143.282 333.255 144.018C333.99 144.754 334.851 145.335 335.838 145.761C336.824 146.187 337.879 146.4 339.001 146.4H359.313C360.435 146.4 361.489 146.187 362.476 145.761C363.462 145.335 364.323 144.754 365.058 144.018C365.793 143.282 366.374 142.42 366.799 141.433C367.225 140.445 367.438 139.39 367.438 138.267V117.933Z" fill="white"/>
</svg>
